<?xml version="1.0" encoding="UTF-8" standalone="no"?><svg xmlns="http://www.w3.org/2000/svg" xmlns:xlink="http://www.w3.org/1999/xlink" contentScriptType="text/ecmascript" fill="#82b4e6" width="138.8" zoomAndPan="magnify" contentStyleType="text/css" viewBox="0.0 0.0 138.8 190.0" height="190" preserveAspectRatio="xMidYMid meet" version="1"><g id="change1_1"><path fill="inherit" d="M131.6,32.2l-9.5,35.4c-0.5,1.7,0.6,3.5,2.3,3.9c0.3,0.1,0.6,0.1,0.8,0.1c1.4,0,2.7-0.9,3.1-2.4l10.3-38.5 c0.2-0.8,0.1-1.7-0.3-2.4c-0.4-0.7-1.1-1.3-2-1.5l-6.1-1.6l1.9-7.2c1.4-5.1-1.7-10.5-6.8-11.8l-5.9-1.6c-5.1-1.4-10.5,1.7-11.8,6.8 l-18.5,69h-0.8V3.2C88.4,1.4,87,0,85.2,0H53.1c-1.8,0-3.2,1.4-3.2,3.2v77.3h-1.4L31.2,26.4c0,0,0,0,0-0.1c-0.1-0.4-0.4-0.8-0.7-1.1 c0,0,0-0.1-0.1-0.1L10,4.2C9.1,3.3,7.8,3,6.7,3.4c-1.2,0.4-2,1.4-2.2,2.6L0,34.8c0,0.1,0,0.1,0,0.2c0,0.3,0,0.6,0.1,0.9 c0,0.1,0,0.2,0,0.3l14.2,44.2c-2.5,0-4.9,1-6.7,2.8c-1.8,1.8-2.8,4.3-2.8,6.8c0,4.8,3.5,8.7,8.1,9.5v16.3v30.6V172 c0,9.9,8.1,18,18,18h73.6c9.9,0,18-8.1,18-18V99.7c4.6-0.8,8.1-4.7,8.1-9.5v0c0-2.6-1-5-2.8-6.8c-1.8-1.8-4.2-2.8-6.8-2.8h-5.2 l11-41.2c0,0,0,0,0,0c0,0,0,0,0,0l2.1-7.9L131.6,32.2z M113.9,13.2c0.5-1.7,2.3-2.7,3.9-2.3l5.9,1.6c1.7,0.5,2.7,2.2,2.3,3.9 l-2.8,10.3c0,0,0,0,0,0c0,0,0,0,0,0l-2.1,7.9l-12.1-3.2L113.9,13.2z M56.3,6.4H82v3H70.1c-1.8,0-3.2,1.4-3.2,3.2s1.4,3.2,3.2,3.2H82 v4.9h-6.2c-1.8,0-3.2,1.4-3.2,3.2s1.4,3.2,3.2,3.2H82v4.9H70.1c-1.8,0-3.2,1.4-3.2,3.2c0,1.8,1.4,3.2,3.2,3.2H82v4.9h-6.2 c-1.8,0-3.2,1.4-3.2,3.2s1.4,3.2,3.2,3.2H82v4.9H70.1c-1.8,0-3.2,1.4-3.2,3.2s1.4,3.2,3.2,3.2H82v4.9h-6.2c-1.8,0-3.2,1.4-3.2,3.2 s1.4,3.2,3.2,3.2H82v8H56.3V6.4z M21,80.5L7.2,37.4c1.6-0.5,3.8-1.2,6.3-2l14.2,45.1H21z M7.9,26.2l11.2-3.4l3.1,3.1 c-7.2,2.3-11.9,3.8-15,4.8L7.9,26.2z M34.5,80.5L19.7,33.4c2.1-0.7,4.3-1.4,6.3-2l15.7,49.1H34.5z M14,17.5l-5,1.5l0.9-5.8L14,17.5z M19.3,119.2h45.1v24.2H19.3V119.2z M115.9,172c0,6.4-5.2,11.5-11.5,11.5H30.8c-6.4,0-11.5-5.2-11.5-11.5v-22.3h48.3 c1.8,0,3.2-1.4,3.2-3.2v-30.6c0-1.8-1.4-3.2-3.2-3.2H19.3V99.8h96.6V172z M123,87.9c0.6,0.6,0.9,1.4,0.9,2.3c0,1.8-1.4,3.2-3.2,3.2 h-1.6H16.1h-1.6c-1.8,0-3.2-1.4-3.2-3.2c0-0.9,0.3-1.7,0.9-2.3c0.6-0.6,1.4-0.9,2.3-0.9h17.7c0,0,0,0,0,0s0,0,0,0h88.5 C121.6,86.9,122.4,87.3,123,87.9z M95.9,80.5l11.5-43l12.1,3.2l-10.6,39.7H95.9z"/></g></svg>