<?xml version="1.0" encoding="UTF-8" standalone="no"?><svg xmlns="http://www.w3.org/2000/svg" xmlns:xlink="http://www.w3.org/1999/xlink" contentScriptType="text/ecmascript" fill="#82b4e6" width="464.7" zoomAndPan="magnify" contentStyleType="text/css" viewBox="-0.1 -0.5 464.7 492.3" height="492.3" preserveAspectRatio="xMidYMid meet" version="1"><g id="change1_1"><path d="M23,405.9c0,13-0.1,24.9,0.1,36.9c0,1.1,1.5,2.7,2.7,3.3c15.7,8.1,32.4,13.8,49.5,18.3c26.9,7.2,54.4,11.5,82.1,13.9 c31.2,2.8,62.5,3.8,93.8,2.1c52-2.9,102.7-11.6,150.1-34.4c12.4-6,23.8-14,35.6-21.2c1-0.6,2-2.3,2-3.5c-0.1-21.5-0.4-43-0.6-64.5 c0-2.2-0.5-3.6-2.7-4.8c-5.2-3-8.2-7.8-10.6-13.1c-4.4-9.5-5.3-19.8-6.8-29.9c-0.5-3.6-1.6-7.2-3.2-10.5c-3.4-7.1-10-8.1-14.8-2 c-3.5,4.5-6.6,9.7-8.5,15.1c-3.6,10.3-6.2,20.9-9.3,31.4c-3.7,12.4-9.3,23.6-19.4,32.2c-14.9,12.7-46.4,15.5-61.3-1.9 c-4.7-5.5-8.3-11.8-12.1-18c-3.6-5.9-7-11.8-12.7-16c-12-9-25-9.1-36.1,1c-5.3,4.8-9.9,10.6-14,16.5c-9.4,13.5-19.8,25.8-34,34.5 c-24.2,14.8-48.2,12.5-70.9-6.7c-12.9-10.8-23.5-23.6-31.9-38.2c-4.9-8.5-11.7-15-21-18.5c-9.6-3.7-16.4-1.3-21.9,7.3 c-3,4.7-5.7,9.6-9,14.1c-5.5,7.5-12.4,12.7-22.3,12.3c-9.1-0.3-15.5-5.6-15.7-14.7c-0.2-8.1,0.8-16.2,1.6-24.3 c1.1-12.4,2.8-24.7,3.5-37.1C5.8,273,6,260.5,5.9,248c-0.1-20.7,8.9-35.5,27.4-44.6c3.4-1.7,7-3.1,10.3-5c1-0.6,2-2.3,1.9-3.3 c-2-19.1-4.2-38.1-6.4-57.2c0-0.3-0.1-0.5-0.1-0.8c-0.9-7.6-1-12.1,10-9.2c3.4,0.9,7.1,0.8,10.6,0.6c5.2-0.2,6.8,0.8,7.3,5.9 c1,10.3,1.7,20.5,2.6,30.8c0.6,7.6,1.3,15.1,2,23.1c7.1-2,13.7-4.1,20.4-5.7c8.9-2.2,17.8-4,26.8-5.9c1-0.2,2-0.3,3-0.3 c2.8-0.2,4.8,0.9,5.2,3.8c0.4,3-0.9,4.9-3.9,5.6c-7.5,1.5-15,2.8-22.4,4.6c-8.6,2.1-17.1,4.9-25.6,7.2c-2.2,0.6-2.7,1.7-2.5,3.8 c0.7,7.3,1.1,14.7,2,22c0.4,3.4-0.7,5.8-3.6,7.3c-6,3.3-12.3,3-18.5,1.1c-1.5-0.5-2.9-3.4-3.2-5.4c-1-6-1.4-12.1-2-18.2 c-16.4,2.6-30.4,18.5-31.1,35.4c-0.6,15.5-0.5,31.1-1.5,46.5c-0.9,13.4-2.9,26.7-4.2,40.1c-0.5,5.3-0.9,10.6-0.5,15.9 c0.3,4.6,2.7,6,7.3,5.8c4.9-0.3,8.9-2.6,11.6-6.5c3.9-5.5,7.3-11.3,11.1-16.9c6.5-9.5,15.3-13.8,26.9-11.5 c12,2.4,21.1,9.3,28.2,18.9c5.4,7.4,9.9,15.4,15.4,22.7c7,9.3,15.4,17.3,25,23.9c15.6,10.8,31.9,11.3,48.6,2.8 c13.6-6.9,23.5-18,32.3-30.2c4.6-6.4,9-13.1,14.5-18.6c19.8-20.2,47-17.3,62.7,6.3c3.2,4.9,6.3,9.9,8.9,15.1 c13.9,27.4,50.7,20.3,62.3,1.7c5.5-8.8,8.4-18.4,11.1-28.2c2.7-9.6,5.6-19.2,9.3-28.5c1.9-4.9,5-9.5,8.5-13.4 c8.6-9.8,22.5-8.3,29.3,2.9c4.4,7.2,4.9,15.3,6.3,23.3c1.2,6.8,3.2,13.5,5.4,20.1c0.9,2.6,2.9,5.2,5,7.1c5.3,4.8,12.4,2.3,14-4.7 c1.8-8.4-0.3-16.4-1.9-24.5c-2.4-11.9-5.7-23.7-7.3-35.8c-1.3-9.9-1-20-1.1-30c-0.1-8.9,0.8-17.8,0.4-26.7 c-0.5-12.2-7.2-21-17.6-26.7c-5.6-3.1-11.8-5-19-7.9c0,4.6-0.1,8.1,0,11.5c0.1,3.4-1.3,5.8-4.7,6.2c-5.4,0.6-10.8,1.3-16.2,1.1 c-4.4-0.1-5.8-2.5-5.7-6.9c0.2-5.6,0.5-11.1,0.8-17.4c-10.5-1.3-20.7-2.6-30.8-3.7c-5.8-0.6-8.2-2-7.9-5.6c0.3-3.5,3-4.9,8.7-4.2 c9.1,1.1,18.1,2.3,27.2,3.5c0.9,0.1,1.8,0.1,3.1,0.1c0.1-1.6,0.2-3.1,0.3-4.5c0.7-19.5,1.4-38.9,2.2-58.4c0.2-5.5,3.1-6.9,8.1-4.8 c4.1,1.7,8.3,3.1,12.6,4.1c3.3,0.8,4.9,2.3,4.8,5.7c-0.4,16.2-0.9,32.3-1.3,48.5c-0.1,5.1,0,10.1,0,15.3c5.4,1.9,11,3.5,16.4,5.7 c18.8,7.9,29.3,21.8,29.2,42.7c-0.1,11.1-0.8,22.1-1,33.2c-0.4,16.3,3.5,32,7.3,47.7c2.3,9.6,4.4,19.3,3.7,29.4 c-0.7,10.6-4.9,15.9-15.4,19.1c0,1.2,0,2.6,0,4c0.2,18.7,0.4,37.4,0.7,56.1c0,1.3,0.7,2.9,1.6,3.8c2.7,2.8,3,5.2-0.1,7.8 c-4.8,4.1-9.8,8.2-15,11.7c-25.5,17.1-53.6,28.2-83,36.3c-27.5,7.6-55.5,12.1-84,14.4c-34.2,2.8-68.4,2.4-102.6-0.2 c-39.4-3-78.3-8.8-115.6-22.1c-12.4-4.4-24.3-10.3-36.1-16c-5.9-2.8-5.9-5.2-1.4-10c0.6-0.6,0.8-1.8,0.8-2.7 c0.3-12,0.5-23.9,0.6-35.9c0-1.2-1-2.7-1.9-3.7c-1.1-1.2-2.5-2.1-3.8-3.2c-2.5-2-4.6-4.4-2.5-7.8c2.1-3.4,5-2.7,8.7-0.2 c0-5.4,0-10.2,0-14.9c0-1.3,0.1-2.5,0.2-3.8c0.4-3,2.2-4.6,5.2-4.3c2.9,0.3,4.3,2,4.3,4.9c0,7.4,0,14.8-0.3,22.1 c-0.1,2.7,0.8,4.1,3.1,5.4c21,12.8,43.9,21,67.6,27.1c24.4,6.3,49.2,10.2,74.3,12.4c26.1,2.3,52.3,3.5,78.5,2.2 c56.6-3,110.9-14.9,160.8-42.8c5.6-3.2,11-6.9,16.4-10.5c3.7-2.5,6.5-2.7,8.4-0.2c2,2.7,1.2,5.3-2.7,8.2 c-17.5,12.5-36.6,21.8-56.6,29.5c-30.1,11.7-61.3,18.8-93.3,22.7c-34.5,4.2-69.1,4-103.6,1.3c-38.4-2.9-76.2-8.9-112.5-22.2 c-12.9-4.7-25.2-11.2-37.8-16.9C25.8,407.3,25,406.9,23,405.9z M49,138.2c0.8,7.5,1.5,14.6,2.3,21.7c2.2,19.6,4.4,39.1,6.6,58.7 c0.6,5.2,1.1,5.7,6.6,3.9c-2.4-27.9-4.7-55.8-7.1-83.9C54.4,138.5,51.9,138.3,49,138.2z M397.3,195.6c0.1-2.5,0.2-4.8,0.3-7.1 c0.6-22.2,1.2-44.4,1.8-66.7c0.2-5.8-0.2-6.2-6.3-6.2c-1,26.8-1.9,53.7-2.9,80.9C393,196.2,395,195.9,397.3,195.6z"/><path d="M178.7,280.5c-32.5,0-61.1-1.4-89.4-6.2c-17.3-2.9-34.3-7-50.2-14.7c-3.7-1.8-7.3-4.2-10.6-6.6c-2.4-1.7-2.6-4.4-0.8-6.7 c1.8-2.2,4.2-2.4,6.5-0.9c15.4,10.5,33,14.8,50.9,18.2c39.2,7.5,78.9,8.1,118.6,6.3c19.8-0.9,39.6-2.1,59.4-4.1 c45.3-4.6,90.2-11.8,132.4-29.8c11.6-4.9,22.4-11.9,33.4-18.1c3.6-2,6.2-2.2,8,0.4c1.7,2.5,0.9,5.2-2.5,7.7 c-18.3,13.3-38.9,21.7-60.3,28.5c-28.6,9.1-58,14.6-87.8,18.5C249.3,277.8,212.1,280,178.7,280.5z"/><path d="M234.6,176.1c0,5.4-0.1,10.2,0,15c0.1,3.1-1.1,5-3.8,6.4c-5.6,2.9-11.4,3.3-17.4,1.8c-3.1-0.8-4.1-3.1-4.1-6.1 c0-5.2,0-10.4,0-15.9c-7.4,0.4-14.2,0.7-21,1.1c-3.4,0.2-6.8,0.6-10.3,0.9c-3.3,0.3-5.9-1.5-5.9-4.4c0-3.1,1.7-5,4.9-5.2 c9.6-0.7,19.3-1.3,28.9-2c0.9-0.1,1.8-0.2,3.2-0.4c0-1.5,0-2.9,0-4.4c-0.3-23.8-0.6-47.6-0.8-71.4c-0.1-6.8,2.3-8.3,8.7-6 c3.2,1.2,6.6,1.9,10,2.1c5,0.3,6.6,1.5,6.6,6.6c0.3,22.5,0.5,45,0.8,67.6c0,1.4,0,2.8,0,3.8c7.4,0,14.5,0,21.5,0 c10.2,0,20.4-0.1,30.5,0c4,0,6,1.7,6,4.8c0,3.1-2,4.7-6,4.7c-15.6,0.2-31.3,0.5-46.9,0.7C237.9,175.9,236.4,176,234.6,176.1z M218.6,190.2c6.3,0.3,6.5,0.1,6.4-4.9c-0.4-28.2-0.8-56.4-1.3-84.6c0-1.1-0.2-2.2-0.2-3.3c-1.9-0.3-3.5-0.6-4.9-0.8 C218.6,127.8,218.6,158.8,218.6,190.2z"/><path d="M329.3,174.9c0.4,19.8,0.8,39.7,1.2,59.5c0.1,4.9-0.7,6.4-5.5,7.1c-5.1,0.7-10.3,1-15.4,0.5c-5-0.5-6.3-2.7-6.5-7.8 c-0.3-10.5-0.5-21.1-0.8-31.6c-0.7-28.2-1.4-56.4-2.1-84.6c-0.1-4.8,1.4-6.2,6-7c5.1-0.9,10-2.2,15-3.6c2.8-0.8,5.5,0.2,6.4,3.1 c0.4,1.4,0.5,3,0.5,4.5c0,20,0,39.9,0,59.9C328.5,174.9,328.9,174.9,329.3,174.9z M320.8,232.9c-0.8-38.2-1.6-75.8-2.4-113.7 c-3.2,0.6-5.8,1.1-8.3,1.6c1,37.6,1.9,74.8,2.9,112.1C315.7,232.9,317.9,232.9,320.8,232.9z"/><path d="M135.5,178.5c-0.7-17.8-1.5-35.6-2.2-53.3c-0.2-5.1,1.3-6.8,6.4-6.6c4.8,0.2,9.3-0.4,13.1-4c1-1,3.7-1.6,4.7-0.9 c1.6,1,3,3.2,3.3,5c0.7,5.2,0.7,10.4,0.9,15.6c1.5,31.2,3,62.5,4.5,93.7c0.3,5.8-0.4,7.6-6,8.8c-5.5,1.2-11.2,1.4-16.8,1.7 c-3.8,0.2-5.2-2.2-5.4-5.9C137.2,214.6,136.4,196.5,135.5,178.5z M147.5,229c8.5,0.9,9.1,0.1,8.7-7.7c-1.3-24.6-2.4-49.2-3.6-73.8 c-0.3-6.8-0.7-13.5-1.1-20.5c-3.1,0.7-5.6,1.2-8.4,1.8C144.6,162.4,146,195.7,147.5,229z"/><path d="M164.2,76.4c-0.1,11.6-2.3,20.3-8.6,27.4c-5.4,6.1-10.9,7.3-18.5,4.2c-11.7-4.6-18.2-17.5-16.3-31.4 c1.2-8.6,4.4-16.4,9.2-23.6c2.4-3.6,4.8-7.2,7.4-10.7c5.2-6.8,5.2-14,2-21.6c-0.4-0.9-0.9-1.8-1.2-2.8c-0.8-2.7-0.1-4.9,2.5-6.1 c2.5-1.1,5.2-0.5,6.1,2.1c1.8,5,3.8,10.1,4.3,15.2c0.8,9,2.3,17.7,6.7,25.8C161.6,62.5,164.4,70.2,164.2,76.4z M144.3,49.5 c-6,8.3-12,16.1-13.5,26.1c-1.1,7.3-0.9,14.6,4.8,20.2c6.2,6,11.5,5.3,15.4-2.3c4.8-9.4,4.5-19.1,0.5-28.7 C149.4,59.8,146.9,55,144.3,49.5z"/><path d="M314.2,101.1c-13,0-23-9.5-25-23.1c-1.1-7.8,0.2-15.2,2.4-22.5c3.2-10.5,6.7-21,10.1-31.5c0.9-2.9,2.5-5.2,6-4.6 c3.1,0.5,3.7,2.8,4,5.6c0.9,12.1,5.8,22.5,13.7,31.6c5.1,5.9,8.5,12.6,9.4,20.5C336.1,89.9,327.6,101.5,314.2,101.1z M304.9,43.8 c-2,8.1-4.6,16.5-6.2,25c-1.1,6.1,0.2,12.2,4.2,17.3c3.9,4.9,11.3,6.8,16.5,4.2c4.7-2.3,7-8.2,5.3-14.6c-0.9-3.3-2.2-6.6-4-9.4 C315.7,58.8,310.3,51.5,304.9,43.8z"/><path d="M196.1,50.1c0.8-8.6,3-19.4,8.6-29.3c0.4-0.8,0-2.1,0-3.1c0-4.5-0.5-9.1,0.1-13.5c0.4-3.4,3.3-4.7,6.2-3.9 c2.7,0.8,3.8,3.3,2.9,6.7c-1.6,6,0.8,11,4.3,15.5c3.7,4.8,8.2,9.1,11.6,14.1c3.6,5.3,7,10.9,9.2,16.9c6,16.4-8.1,28.2-22.9,25.7 C202.4,76.9,196,68.3,196.1,50.1z M211.1,29.5c-3.6,10.4-7.2,20.3-4.4,31.1c1.8,7,9.8,11.1,17.3,8.7c6.5-2.1,8.3-7.5,5-15.3 C225,44.6,218.2,37.3,211.1,29.5z"/><path d="M396,98.6c-4.7-0.2-9.8-1.7-14.4-5c-8.2-5.9-9.1-14.3-7.1-23.2c0.9-4.2,3-8.1,4.3-12.2c1.5-4.7,2.9-9.4,4.1-14.1 c0.3-1-0.5-2.2-0.6-3.3c-0.4-5.4-0.9-10.8-0.8-16.2c0-3,2.3-5,5.5-4.5c3.1,0.5,4.6,2.8,3.9,5.9c-1.9,9.3,1.7,16.2,8.6,22.2 c6,5.3,11.3,11.4,14.7,18.8c2.8,6.2,3.4,12.4,1,18.9C412.2,93.9,405.4,98.6,396,98.6z M392.3,54c-0.5,0.1-1,0.2-1.5,0.3 c-2.4,6.6-5,13.2-7.1,19.9c-1.1,3.5-0.6,7.1,2,10c3.8,4.2,12.2,5.9,16.5,3.3c4.4-2.6,6-9.4,3.6-15.4c-0.5-1.2-0.9-2.4-1.7-3.4 C400.2,63.8,396.2,58.9,392.3,54z"/><path d="M70,99.7c0.1,10.6-7.4,19.5-17.8,21c-6.1,0.8-10.9-2.1-14.7-6.5c-7.2-8.4-8.2-18-5.2-28.3c1.3-4.4,3-8.6,4.4-13 c0.4-1.2,0.3-2.7-0.1-3.9c-4.2-10.3-1.9-20.2,2.2-29.9c1.1-2.5,3.4-3.5,6-2.3c2.7,1.2,3.4,3.2,2.7,6.2c-1.3,5.4-2.8,10.8-3.1,16.3 c-0.2,2.6,1.5,5.9,3.3,8c2.4,2.9,5.7,5,8.6,7.5C65.5,82.3,69.9,90.4,70,99.7z M45,78.2c-1.5,5.1-3.1,9.6-4.2,14.2 c-1.3,5.1,0,9.8,2.9,14.1c1.8,2.5,3.9,4.9,7.4,4.4c3.8-0.5,6.9-2.5,8-6.1c0.9-2.6,1.1-5.8,0.6-8.5C58.3,87.9,51.6,83.6,45,78.2z"/></g></svg>